<svg width="200" height="60" viewBox="0 0 200 60" fill="none" xmlns="http://www.w3.org/2000/svg">
<path d="M66.5227 42H62.7955L71.1705 18.7273H75.2273L83.6023 42H79.875L73.2955 22.9545H73.1136L66.5227 42ZM67.1477 32.8864H79.2386V35.8409H67.1477V32.8864ZM97.7472 34.7614V24.5455H101.156V42H97.8153V38.9773H97.6335C97.232 39.9091 96.5881 40.6856 95.7017 41.3068C94.8229 41.9205 93.7282 42.2273 92.4176 42.2273C91.2964 42.2273 90.304 41.9811 89.4403 41.4886C88.5843 40.9886 87.91 40.25 87.4176 39.2727C86.9328 38.2955 86.6903 37.0871 86.6903 35.6477V24.5455H90.0881V35.2386C90.0881 36.428 90.4176 37.375 91.0767 38.0795C91.7358 38.7841 92.5919 39.1364 93.6449 39.1364C94.2813 39.1364 94.9138 38.9773 95.5426 38.6591C96.179 38.3409 96.7055 37.8598 97.1222 37.2159C97.5464 36.572 97.7547 35.7538 97.7472 34.7614ZM113.869 24.5455V27.2727H104.335V24.5455H113.869ZM106.892 20.3636H110.29V36.875C110.29 37.5341 110.388 38.0303 110.585 38.3636C110.782 38.6894 111.036 38.9129 111.347 39.0341C111.665 39.1477 112.009 39.2045 112.381 39.2045C112.653 39.2045 112.892 39.1856 113.097 39.1477C113.301 39.1098 113.46 39.0795 113.574 39.0568L114.188 41.8636C113.991 41.9394 113.71 42.0152 113.347 42.0909C112.983 42.1742 112.528 42.2197 111.983 42.2273C111.089 42.2424 110.256 42.0833 109.483 41.75C108.71 41.4167 108.085 40.9015 107.608 40.2045C107.131 39.5076 106.892 38.6326 106.892 37.5795V20.3636ZM138.116 30.3636C138.116 32.8485 137.662 34.9848 136.753 36.7727C135.844 38.553 134.598 39.9242 133.014 40.8864C131.438 41.8409 129.647 42.3182 127.639 42.3182C125.624 42.3182 123.825 41.8409 122.241 40.8864C120.666 39.9242 119.423 38.5492 118.514 36.7614C117.605 34.9735 117.151 32.8409 117.151 30.3636C117.151 27.8788 117.605 25.7462 118.514 23.9659C119.423 22.178 120.666 20.8068 122.241 19.8523C123.825 18.8902 125.624 18.4091 127.639 18.4091C129.647 18.4091 131.438 18.8902 133.014 19.8523C134.598 20.8068 135.844 22.178 136.753 23.9659C137.662 25.7462 138.116 27.8788 138.116 30.3636ZM134.639 30.3636C134.639 28.4697 134.332 26.875 133.719 25.5795C133.113 24.2765 132.279 23.2917 131.219 22.625C130.166 21.9508 128.973 21.6136 127.639 21.6136C126.298 21.6136 125.101 21.9508 124.048 22.625C122.995 23.2917 122.162 24.2765 121.548 25.5795C120.942 26.875 120.639 28.4697 120.639 30.3636C120.639 32.2576 120.942 33.8561 121.548 35.1591C122.162 36.4545 122.995 37.4394 124.048 38.1136C125.101 38.7803 126.298 39.1136 127.639 39.1136C128.973 39.1136 130.166 38.7803 131.219 38.1136C132.279 37.4394 133.113 36.4545 133.719 35.1591C134.332 33.8561 134.639 32.2576 134.639 30.3636ZM142.494 42V18.7273H151.017C152.669 18.7273 154.036 19 155.119 19.5455C156.203 20.0833 157.013 20.8144 157.551 21.7386C158.089 22.6553 158.358 23.6894 158.358 24.8409C158.358 25.8106 158.18 26.6288 157.824 27.2955C157.468 27.9545 156.991 28.4848 156.392 28.8864C155.801 29.2803 155.15 29.5682 154.438 29.75V29.9773C155.21 30.0152 155.964 30.2652 156.699 30.7273C157.441 31.1818 158.055 31.8295 158.54 32.6705C159.025 33.5114 159.267 34.5341 159.267 35.7386C159.267 36.928 158.987 37.9962 158.426 38.9432C157.873 39.8826 157.017 40.6288 155.858 41.1818C154.699 41.7273 153.218 42 151.415 42H142.494ZM146.006 38.9886H151.074C152.756 38.9886 153.96 38.6629 154.688 38.0114C155.415 37.3598 155.778 36.5455 155.778 35.5682C155.778 34.8333 155.593 34.1591 155.222 33.5455C154.85 32.9318 154.32 32.4432 153.631 32.0795C152.949 31.7159 152.138 31.5341 151.199 31.5341H146.006V38.9886ZM146.006 28.7955H150.71C151.498 28.7955 152.206 28.6439 152.835 28.3409C153.472 28.0379 153.975 27.6136 154.347 27.0682C154.725 26.5152 154.915 25.8636 154.915 25.1136C154.915 24.1515 154.578 23.3447 153.903 22.6932C153.229 22.0417 152.195 21.7159 150.801 21.7159H146.006V28.7955ZM170.511 42.3523C168.875 42.3523 167.447 41.9773 166.227 41.2273C165.008 40.4773 164.061 39.428 163.386 38.0795C162.712 36.7311 162.375 35.1553 162.375 33.3523C162.375 31.5417 162.712 29.9583 163.386 28.6023C164.061 27.2462 165.008 26.1932 166.227 25.4432C167.447 24.6932 168.875 24.3182 170.511 24.3182C172.148 24.3182 173.576 24.6932 174.795 25.4432C176.015 26.1932 176.962 27.2462 177.636 28.6023C178.311 29.9583 178.648 31.5417 178.648 33.3523C178.648 35.1553 178.311 36.7311 177.636 38.0795C176.962 39.428 176.015 40.4773 174.795 41.2273C173.576 41.9773 172.148 42.3523 170.511 42.3523ZM170.523 39.5C171.583 39.5 172.462 39.2197 173.159 38.6591C173.856 38.0985 174.371 37.3523 174.705 36.4205C175.045 35.4886 175.216 34.4621 175.216 33.3409C175.216 32.2273 175.045 31.2045 174.705 30.2727C174.371 29.3333 173.856 28.5795 173.159 28.0114C172.462 27.4432 171.583 27.1591 170.523 27.1591C169.455 27.1591 168.568 27.4432 167.864 28.0114C167.167 28.5795 166.648 29.3333 166.307 30.2727C165.973 31.2045 165.807 32.2273 165.807 33.3409C165.807 34.4621 165.973 35.4886 166.307 36.4205C166.648 37.3523 167.167 38.0985 167.864 38.6591C168.568 39.2197 169.455 39.5 170.523 39.5ZM190.588 24.5455V27.2727H181.054V24.5455H190.588ZM183.611 20.3636H187.009V36.875C187.009 37.5341 187.107 38.0303 187.304 38.3636C187.501 38.6894 187.755 38.9129 188.065 39.0341C188.384 39.1477 188.728 39.2045 189.099 39.2045C189.372 39.2045 189.611 39.1856 189.815 39.1477C190.02 39.1098 190.179 39.0795 190.293 39.0568L190.906 41.8636C190.709 41.9394 190.429 42.0152 190.065 42.0909C189.702 42.1742 189.247 42.2197 188.702 42.2273C187.808 42.2424 186.974 42.0833 186.202 41.75C185.429 41.4167 184.804 40.9015 184.327 40.2045C183.849 39.5076 183.611 38.6326 183.611 37.5795V20.3636Z" fill="black"/>
<path d="M17.6689 5.5C24.4 5.50001 29.8376 10.834 29.8379 17.3906C29.8379 23.9475 24.4002 29.2822 17.6689 29.2822C10.9377 29.2822 5.5 23.9475 5.5 17.3906C5.50027 10.834 10.9379 5.5 17.6689 5.5Z" fill="white" stroke="#365AFF"/>
<path d="M30 17.5608C36.731 17.5608 42.1687 22.8948 42.1689 29.4514C42.1689 36.0083 36.7312 41.343 30 41.343C23.2688 41.343 17.8311 36.0083 17.8311 29.4514C17.8313 22.8948 23.2689 17.5608 30 17.5608Z" fill="#365AFF" stroke="#365AFF"/>
<path d="M42.3311 30.7178C49.0621 30.7178 54.4997 36.0517 54.5 42.6084C54.5 49.1653 49.0623 54.5 42.3311 54.5C35.5998 54.5 30.1621 49.1653 30.1621 42.6084C30.1624 36.0517 35.6 30.7178 42.3311 30.7178Z" fill="white" stroke="#365AFF"/>
</svg>
