<svg width="60" height="60" viewBox="0 0 60 60" fill="none" xmlns="http://www.w3.org/2000/svg">
<path d="M17.6689 5.5C24.4 5.50001 29.8376 10.834 29.8379 17.3906C29.8379 23.9475 24.4002 29.2822 17.6689 29.2822C10.9377 29.2822 5.5 23.9475 5.5 17.3906C5.50027 10.834 10.9379 5.5 17.6689 5.5Z" fill="white" stroke="#365AFF"/>
<path d="M30 17.5608C36.731 17.5608 42.1687 22.8948 42.1689 29.4514C42.1689 36.0083 36.7312 41.343 30 41.343C23.2688 41.343 17.8311 36.0083 17.8311 29.4514C17.8313 22.8948 23.2689 17.5608 30 17.5608Z" fill="#365AFF" stroke="#365AFF"/>
<path d="M42.3311 30.7178C49.0621 30.7178 54.4997 36.0517 54.5 42.6084C54.5 49.1653 49.0623 54.5 42.3311 54.5C35.5998 54.5 30.1621 49.1653 30.1621 42.6084C30.1624 36.0517 35.6 30.7178 42.3311 30.7178Z" fill="white" stroke="#365AFF"/>
</svg>
